{"title":"Avatar 2009 DVDSCR XviD AC3-ViSiON","uid":5336503,"size":2369264137,"categoryP":"video","categoryS":"movies","magnet":"?xt=urn:btih:a32f01c2d58f48bfca6215ca0edeaa31724543f6&amp;dn=Avatar+2009+DVDSCR+XviD+AC3-ViSiON&amp;tr=udp%3A%2F%2Ftracker.openbittorrent.com%3A80&amp;tr=udp%3A%2F%2Fopen.demonii.com%3A1337&amp;tr=udp%3A%2F%2Ftracker.coppersurfer.tk%3A6969&amp;tr=udp%3A%2F%2Fexodus.desync.com%3A6969","seeders":1,"leechers":0,"uploader":"IwannaFan2","files":3,"time":1265334680,"description":"Filename:\nAvatar 2009 DVDSCR XviD AC3-ViSiON\n &lt;a href=&quot;\nhttp://www.imdb.com/title/tt0499549/&quot; rel=&quot;nofollow&quot; target=&quot;_NEW&quot;&gt;\nhttp://www.imdb.com/title/tt0499549/&lt;/a&gt;\n\nFormat                           : AVI\nFormat/Info                      : Audio Video Interleave\nFormat profile                   : OpenDML\nFile size                        : 2.19 GiB\nDuration                         : 2h 36mn\nOverall bit rate                 : 1 993 Kbps\nWriting application              : VirtualDubMod 1.5.10.2 (build 2542/release)\nWriting library                  : VirtualDubMod build 2542/release\n\nVideo\nID                               : 0\nFormat                           : MPEG-4 Visual\nFormat profile                   : AdvancedSimple@L5\nFormat settings, BVOP            : Yes\nFormat settings, QPel            : No\nFormat settings, GMC             : No warppoints\nFormat settings, Matrix          : Default (H.263)\nMuxing mode                      : Packed bitstream\nCodec ID                         : XVID\nCodec ID/Hint                    : XviD\nDuration                         : 2h 36mn\nBit rate                         : 1 789 Kbps\nWidth                            : 720 pixels\nHeight                           : 400 pixels\nDisplay aspect ratio             : 16:9\nFrame rate                       : 23.976 fps\nResolution                       : 24 bits\nColorimetry                      : 4:2:0\nScan type                        : Progressive\nBits/(Pixel*Frame)               : 0.259\nStream size                      : 1.96 GiB (90%)\nWriting library                  : XviD 1.2.1 (UTC 2008-12-04)\n\nAudio\nID                               : 1\nFormat                           : AC-3\nFormat/Info                      : Audio Coding 3\nCodec ID                         : 2000\nDuration                         : 2h 36mn\nBit rate mode                    : Constant\nBit rate                         : 192 Kbps\nChannel(s)                       : 2 channels\nChannel positions                : L R\nSampling rate                    : 48.0 KHz\nStream size                      : 216 MiB (10%)\nAlignment                        : Split accross interleaves\nInterleave, duration             : 42 ms (1.00 video frame)\nInterleave, preload duration     : 500 ms\n\nBest Version yet!!!","torrent":{"xt":"urn:btih:a32f01c2d58f48bfca6215ca0edeaa31724543f6","amp;dn":"Avatar+2009+DVDSCR+XviD+AC3-ViSiON","amp;tr":["udp%3A%2F%2Ftracker.openbittorrent.com%3A80","udp%3A%2F%2Fopen.demonii.com%3A1337","udp%3A%2F%2Ftracker.coppersurfer.tk%3A6969","udp%3A%2F%2Fexodus.desync.com%3A6969"],"infoHash":"a32f01c2d58f48bfca6215ca0edeaa31724543f6","infoHashBuffer":{"type":"Buffer","data":[163,47,1,194,213,143,72,191,202,98,21,202,14,222,170,49,114,69,67,246]},"announce":[],"urlList":[]}}